<svg xmlns="http://www.w3.org/2000/svg" version="1.1" xmlns:xlink="http://www.w3.org/1999/xlink" xmlns:svgjs="http://svgjs.dev/svgjs" width="1000" height="171" viewBox="0 0 1000 171"><g transform="matrix(1,0,0,1,-0.6060606060606233,0.6263268111332536)"><svg viewBox="0 0 396 68" data-background-color="#aaaaaa" preserveAspectRatio="xMidYMid meet" height="171" width="1000" xmlns="http://www.w3.org/2000/svg" xmlns:xlink="http://www.w3.org/1999/xlink"><g id="tight-bounds" transform="matrix(1,0,0,1,0.2400000000000091,-0.24906563249743385)"><svg viewBox="0 0 395.52 68.4981312649949" height="68.4981312649949" width="395.52"><g><svg viewBox="0 0 395.52 68.4981312649949" height="68.4981312649949" width="395.52"><g><svg viewBox="0 0 395.52 68.4981312649949" height="68.4981312649949" width="395.52"><g id="textblocktransform"><svg viewBox="0 0 395.52 68.4981312649949" height="68.4981312649949" width="395.52" id="textblock"><g><svg viewBox="0 0 395.52 68.4981312649949" height="68.4981312649949" width="395.52"><g transform="matrix(1,0,0,1,0,0)"><svg width="395.52" viewBox="-0.020000000000000018 -38.01 298.10999999999996 52.46" height="68.4981312649949" data-palette-color="#ffffff"><path d="M32.23-14.65L32.23 0 25.88 0 25.88-14.65Q25.88-15.89 25.45-16.88 25.02-17.87 24.29-18.58 23.56-19.29 22.57-19.67 21.58-20.04 20.43-20.04L20.43-20.04 9.33-20.04 9.33 0 2.98 0 2.98-23.24Q2.98-23.9 3.22-24.48 3.47-25.05 3.91-25.48 4.35-25.9 4.93-26.15 5.52-26.39 6.18-26.39L6.18-26.39 20.48-26.39Q21.68-26.39 23.01-26.12 24.34-25.85 25.65-25.26 26.95-24.66 28.14-23.74 29.32-22.83 30.24-21.52 31.15-20.21 31.69-18.51 32.23-16.8 32.23-14.65L32.23-14.65ZM66.18-17.65L66.18-17.65Q66.18-16.33 65.72-14.81 65.26-13.28 64.22-11.98 63.18-10.67 61.51-9.79 59.84-8.91 57.44-8.91L57.44-8.91 45.99-8.91 45.99-14.94 57.44-14.94Q58.74-14.94 59.45-15.73 60.15-16.53 60.15-17.7L60.15-17.7Q60.15-18.95 59.36-19.65 58.57-20.36 57.44-20.36L57.44-20.36 45.99-20.36Q44.7-20.36 43.99-19.57 43.28-18.77 43.28-17.6L43.28-17.6 43.28-8.74Q43.28-7.47 44.08-6.76 44.87-6.05 46.04-6.05L46.04-6.05 57.44-6.05 57.44 0 45.99 0Q44.68 0 43.15-0.46 41.62-0.93 40.32-1.97 39.01-3 38.13-4.68 37.25-6.35 37.25-8.74L37.25-8.74 37.25-17.65Q37.25-18.97 37.72-20.5 38.18-22.02 39.22-23.33 40.26-24.63 41.93-25.51 43.6-26.39 45.99-26.39L45.99-26.39 57.44-26.39Q58.76-26.39 60.29-25.93 61.81-25.46 63.12-24.43 64.43-23.39 65.31-21.72 66.18-20.04 66.18-17.65ZM93.55-26.39L93.55-20.04 79.27-20.04Q77.97-20.04 77.31-19.4 76.66-18.75 76.66-17.5L76.66-17.5 76.66 0 70.31 0 70.31-17.5Q70.31-19.14 70.72-20.43 71.14-21.73 71.83-22.72 72.53-23.71 73.43-24.4 74.34-25.1 75.32-25.54 76.31-25.98 77.33-26.18 78.34-26.39 79.22-26.39L79.22-26.39 93.55-26.39ZM120.67-26.39L120.67-20.04 106.39-20.04Q105.1-20.04 104.44-19.4 103.78-18.75 103.78-17.5L103.78-17.5 103.78 0 97.43 0 97.43-17.5Q97.43-19.14 97.84-20.43 98.26-21.73 98.95-22.72 99.65-23.71 100.55-24.4 101.46-25.1 102.45-25.54 103.43-25.98 104.45-26.18 105.46-26.39 106.34-26.39L106.34-26.39 120.67-26.39ZM153.46-17.5L153.46-8.91Q153.46-7.28 153.04-5.97 152.63-4.66 151.94-3.67 151.26-2.69 150.36-1.99 149.45-1.29 148.46-0.85 147.48-0.42 146.46-0.21 145.45 0 144.55 0L144.55 0 133.1 0Q131.78 0 130.21-0.46 128.65-0.93 127.32-1.99 125.99-3.05 125.1-4.75 124.21-6.45 124.21-8.91L124.21-8.91 124.21-17.5Q124.21-19.95 125.1-21.64 125.99-23.34 127.32-24.4 128.65-25.46 130.21-25.93 131.78-26.39 133.1-26.39L133.1-26.39 144.55-26.39Q146.99-26.39 148.7-25.51 150.41-24.63 151.45-23.3 152.5-21.97 152.98-20.41 153.46-18.85 153.46-17.5L153.46-17.5ZM147.11-8.91L147.11-17.46Q147.11-18.77 146.45-19.41 145.79-20.04 144.55-20.04L144.55-20.04 133.14-20.04Q131.87-20.04 131.22-19.4 130.56-18.75 130.56-17.5L130.56-17.5 130.56-8.91Q130.56-7.67 131.22-7.01 131.87-6.35 133.14-6.35L133.14-6.35 144.55-6.35Q145.84-6.35 146.47-7.01 147.11-7.67 147.11-8.91L147.11-8.91ZM187.56-17.5L187.56 2.54Q187.56 4.17 187.15 5.48 186.73 6.79 186.05 7.78 185.36 8.76 184.46 9.46 183.56 10.16 182.57 10.6 181.58 11.04 180.57 11.24 179.55 11.45 178.65 11.45L178.65 11.45 167.2 11.45 167.2 5.1 178.65 5.1Q179.94 5.1 180.58 4.44 181.21 3.78 181.21 2.54L181.21 2.54 181.21-17.5Q181.21-18.75 180.58-19.4 179.94-20.04 178.65-20.04L178.65-20.04 167.2-20.04Q166.03-20.04 165.34-19.32 164.66-18.6 164.66-17.5L164.66-17.5 164.66-8.91Q164.66-7.67 165.32-7.01 165.98-6.35 167.25-6.35L167.25-6.35 178.65-6.35 178.65 0 167.2 0Q166.3 0 165.3-0.21 164.29-0.42 163.31-0.85 162.32-1.29 161.41-1.99 160.51-2.69 159.83-3.67 159.14-4.66 158.73-5.97 158.31-7.28 158.31-8.91L158.31-8.91 158.31-17.5Q158.31-18.41 158.52-19.41 158.73-20.41 159.17-21.4 159.61-22.39 160.3-23.29 161-24.19 161.99-24.88 162.98-25.56 164.27-25.98 165.56-26.39 167.2-26.39L167.2-26.39 178.65-26.39Q179.55-26.39 180.57-26.18 181.58-25.98 182.57-25.54 183.56-25.1 184.46-24.4 185.36-23.71 186.05-22.72 186.73-21.73 187.15-20.43 187.56-19.14 187.56-17.5L187.56-17.5ZM198.67-3.2L198.67-3.2Q198.67-2.54 198.41-1.97 198.15-1.39 197.73-0.96 197.3-0.54 196.73-0.29 196.15-0.05 195.52-0.05L195.52-0.05Q194.86-0.05 194.28-0.29 193.71-0.54 193.28-0.96 192.86-1.39 192.61-1.97 192.37-2.54 192.37-3.2L192.37-3.2Q192.37-3.83 192.61-4.41 192.86-4.98 193.28-5.41 193.71-5.83 194.28-6.09 194.86-6.35 195.52-6.35L195.52-6.35Q196.15-6.35 196.73-6.09 197.3-5.83 197.73-5.41 198.15-4.98 198.41-4.41 198.67-3.83 198.67-3.2ZM232.87-14.65L232.87 0 226.52 0 226.52-14.65Q226.52-15.89 226.09-16.88 225.67-17.87 224.93-18.58 224.2-19.29 223.21-19.67 222.22-20.04 221.08-20.04L221.08-20.04 209.97-20.04 209.97 0 203.62 0 203.62-23.24Q203.62-23.9 203.86-24.48 204.11-25.05 204.55-25.48 204.99-25.9 205.57-26.15 206.16-26.39 206.82-26.39L206.82-26.39 221.13-26.39Q222.32-26.39 223.65-26.12 224.98-25.85 226.29-25.26 227.59-24.66 228.78-23.74 229.96-22.83 230.88-21.52 231.79-20.21 232.33-18.51 232.87-16.8 232.87-14.65L232.87-14.65ZM266.83-17.65L266.83-17.65Q266.83-16.33 266.36-14.81 265.9-13.28 264.86-11.98 263.82-10.67 262.15-9.79 260.48-8.91 258.09-8.91L258.09-8.91 246.64-8.91 246.64-14.94 258.09-14.94Q259.38-14.94 260.09-15.73 260.8-16.53 260.8-17.7L260.8-17.7Q260.8-18.95 260-19.65 259.21-20.36 258.09-20.36L258.09-20.36 246.64-20.36Q245.34-20.36 244.63-19.57 243.93-18.77 243.93-17.6L243.93-17.6 243.93-8.74Q243.93-7.47 244.72-6.76 245.51-6.05 246.68-6.05L246.68-6.05 258.09-6.05 258.09 0 246.64 0Q245.32 0 243.79-0.46 242.27-0.93 240.96-1.97 239.65-3 238.77-4.68 237.9-6.35 237.9-8.74L237.9-8.74 237.9-17.65Q237.9-18.97 238.36-20.5 238.82-22.02 239.86-23.33 240.9-24.63 242.57-25.51 244.24-26.39 246.64-26.39L246.64-26.39 258.09-26.39Q259.4-26.39 260.93-25.93 262.46-25.46 263.76-24.43 265.07-23.39 265.95-21.72 266.83-20.04 266.83-17.65ZM295.09-26.39L295.09-20.04 284.01-20.04 284.01 0 277.59 0 277.59-20.04 269.34-20.04 269.34-26.39 277.59-26.39 277.59-35.01 284.01-35.01 284.01-26.39 295.09-26.39Z" opacity="1" transform="matrix(1,0,0,1,0,0)" fill="#ffffff" class="wordmark-text-0" data-fill-palette-color="primary" id="text-0"></path></svg></g></svg></g></svg></g></svg></g></svg></g><defs></defs></svg><rect width="395.52" height="68.4981312649949" fill="none" stroke="none" visibility="hidden"></rect></g></svg></g></svg>